<svg width="77" height="28" viewBox="0 0 77 28" fill="none" xmlns="http://www.w3.org/2000/svg">
<path d="M38.5 28C59.763 28 77 27.5523 77 27C77 26.4477 59.763 26 38.5 26C17.237 26 0 26.4477 0 27C0 27.5523 17.237 28 38.5 28Z" fill="url(#paint0_linear)" fill-opacity="0.6"/>
<g opacity="0.5">
<path d="M62.0544 3.56911C61.9557 3.03305 61.7158 2.7227 61.2503 2.5111C61.0246 2.39824 60.7707 2.32771 60.5309 2.2995C55.0715 1.56594 51.037 1.18506 46.6639 1.18506C44.2093 1.18506 41.656 1.31202 38.6794 1.55184C37.7907 1.62237 36.9161 1.77754 36.0555 2.03147C31.6542 3.30108 28.7059 4.83872 24.8265 7.71651C24.2199 8.16793 23.7121 8.74631 23.3594 9.43754C23.1055 9.93128 22.9221 10.3968 22.7246 11.0316C34.2076 9.83253 44.7736 9.07077 59.0073 8.67578C59.4164 8.66167 59.8396 8.60524 60.2346 8.46417C60.9964 8.21025 61.4055 7.82937 61.7017 7.22277C61.7864 7.03939 61.8428 6.82778 61.8569 6.61618C61.8992 6.00959 62.0262 4.64123 62.0685 4.09106C62.0967 3.90767 62.0826 3.73839 62.0544 3.56911ZM46.6639 2.13022C50.1059 2.13022 53.3505 2.38414 56.8631 2.79324L56.2424 7.80115C51.6154 7.94222 47.2987 8.13972 43.0666 8.39364L44.2798 2.17254C45.098 2.13021 45.888 2.13022 46.6639 2.13022ZM24.2058 9.86075C24.488 9.31058 24.9112 8.83095 25.3908 8.46417C29.2984 5.57228 32.1621 4.11928 36.3236 2.9202C37.0994 2.69449 37.9176 2.55342 38.7641 2.48289C40.3158 2.35592 41.7265 2.25718 43.0666 2.20075L41.2751 8.49239C35.6464 8.84506 30.1166 9.31058 24.1635 9.91718C24.1917 9.90307 24.1917 9.88896 24.2058 9.86075ZM61.1375 3.99231C61.0951 4.52837 60.9823 5.91084 60.9259 6.51743C60.9117 6.63029 60.8976 6.72904 60.8553 6.79957C60.686 7.13813 60.4885 7.37795 59.9243 7.56134C59.6421 7.66008 59.3177 7.71651 58.9791 7.71651C58.2456 7.73062 57.512 7.75883 56.7785 7.78705L57.3992 2.86377C58.3725 2.97662 59.3741 3.10359 60.4039 3.24465C60.5732 3.27287 60.7143 3.31519 60.8412 3.37161C61.0387 3.47036 61.081 3.51268 61.1233 3.7525C61.1516 3.80893 61.1516 3.89357 61.1375 3.99231Z" fill="#333333"/>
<path d="M43.489 5.40285C43.362 4.41538 42.8118 3.72414 42.3745 3.73825C42.2335 3.73825 41.6551 4.02039 41.6551 4.02039C41.2319 4.23199 40.978 4.96554 41.0908 5.89659C41.1896 6.70068 41.5422 7.33549 41.9372 7.51887L41.2319 8.95777V9.07062L43.094 9.12705L43.3902 6.9546L43.235 7.01103C43.4749 6.64425 43.5736 6.05177 43.489 5.40285Z" fill="#1A1A1A"/>
<path d="M29.7211 10.7506L28.254 7.30851C28.1835 7.15333 28.0001 7.06869 27.8308 7.13923C27.6757 7.20976 27.591 7.39315 27.6615 7.56243L28.113 8.62044L27.9578 8.69098L27.5064 7.61886C27.4782 7.56243 27.4217 7.52011 27.3512 7.52011C26.928 7.54833 25.5455 7.71761 23.9091 7.95742V10.5813L28.8042 10.7506L28.7337 10.5954L28.9453 10.6095L29.1145 11.0045C29.1851 11.1597 29.3685 11.2443 29.5378 11.1738C29.7211 11.0891 29.7917 10.9057 29.7211 10.7506Z" fill="#262626"/>
</g>
<path d="M21.5811 21.1465C21.5811 22.0917 21.5106 22.8394 21.4401 23.714L7.86932 23.3472C7.67183 22.6419 7.53076 21.9224 7.53076 21.1465C7.53076 17.2954 10.6766 14.1778 14.556 14.1778C18.4353 14.1637 21.5811 17.2954 21.5811 21.1465Z" fill="#46494B"/>
<path d="M71.1532 21.3301C71.1532 21.7956 71.1391 22.2188 71.1109 22.6279L70.998 22.642L57.5402 23.5308C57.4696 22.8254 57.4414 22.106 57.4414 21.3301C57.4414 17.4789 60.5167 14.3613 64.2973 14.3613C68.0779 14.3613 71.1532 17.4789 71.1532 21.3301Z" fill="#46494B"/>
<path d="M14.5575 15.4058C11.327 15.4058 8.71729 18.0296 8.71729 21.246C8.71729 24.4764 11.327 27.0862 14.5575 27.0862C17.788 27.0862 20.3977 24.4764 20.3977 21.246C20.3977 18.0296 17.788 15.4058 14.5575 15.4058ZM14.5575 25.5486C12.1876 25.5486 10.269 23.63 10.269 21.2601C10.269 18.8901 12.1876 16.9716 14.5575 16.9716C16.9274 16.9716 18.846 18.8901 18.846 21.2601C18.846 23.6159 16.9274 25.5486 14.5575 25.5486Z" fill="url(#paint1_radial)"/>
<path d="M14.4723 25.7859C16.942 25.7859 18.9441 23.7838 18.9441 21.3141C18.9441 18.8443 16.942 16.8422 14.4723 16.8422C12.0025 16.8422 10.0004 18.8443 10.0004 21.3141C10.0004 23.7838 12.0025 25.7859 14.4723 25.7859Z" fill="#303030"/>
<path d="M14.473 24.3196C16.1247 24.3196 17.4636 22.9806 17.4636 21.329C17.4636 19.6773 16.1247 18.3383 14.473 18.3383C12.8213 18.3383 11.4823 19.6773 11.4823 21.329C11.4823 22.9806 12.8213 24.3196 14.473 24.3196Z" fill="url(#paint2_radial)"/>
<path d="M17.6745 20.8769C17.6181 20.4819 17.4911 20.101 17.3077 19.7765C17.209 19.5931 16.9974 19.2828 16.7858 19.0571C16.5036 18.7608 16.1792 18.5351 15.8406 18.3799C15.7983 18.3517 15.7419 18.3799 15.7137 18.4223L15.361 19.0148C15.2905 19.1135 15.3046 19.2687 15.3892 19.3533C15.5303 19.4521 15.6431 19.5367 15.756 19.6355C16.0663 19.9035 16.292 20.2562 16.4472 20.6229C16.4472 20.6229 16.4472 20.6229 16.4472 20.637C16.5036 20.7922 16.5601 20.9615 16.5601 21.1308C16.5742 21.4129 16.5601 21.6809 16.4895 21.9631C16.4472 22.1183 16.4049 22.2734 16.3626 22.4427C16.3485 22.5697 16.419 22.6966 16.546 22.739L17.1808 23.007C17.2231 23.0211 17.2795 23.007 17.3077 22.9647C17.4488 22.6966 17.6463 22.0759 17.6463 22.0618C17.7168 21.6668 17.7309 21.2718 17.6745 20.8769Z" fill="url(#paint3_linear)"/>
<path d="M14.4725 17.0268C12.1025 17.0268 10.184 18.9453 10.184 21.3153C10.184 23.6852 12.1025 25.6037 14.4725 25.6037C16.8424 25.6037 18.7609 23.6852 18.7609 21.3153C18.7609 18.9594 16.8424 17.0268 14.4725 17.0268ZM14.4725 24.8279C12.5398 24.8279 10.974 23.262 10.974 21.3294C10.974 19.3967 12.5398 17.8309 14.4725 17.8309C16.4051 17.8309 17.971 19.3967 17.971 21.3294C17.971 23.262 16.4051 24.8279 14.4725 24.8279Z" fill="url(#paint4_radial)"/>
<path d="M15.8833 20.3408L17.4351 19.3957C17.4209 19.3816 16.4194 18.38 16.4053 18.3659L15.446 19.9176C15.1921 20.101 14.8535 19.974 14.7689 19.6355L15.1921 17.8721C15.178 17.8721 13.7391 17.8721 13.725 17.8721L14.1482 19.6496C14.0917 19.9599 13.7673 20.101 13.471 19.9176L12.5259 18.3659C12.5118 18.38 11.5102 19.3816 11.4961 19.3957L13.0478 20.3549C13.2312 20.6089 13.0902 20.9333 12.7657 21.018L11.0023 20.5947C11.0023 20.6089 11.0023 22.0336 11.0023 22.0477L12.7798 21.6245C13.0902 21.681 13.2312 22.0054 13.0478 22.3017L11.4961 23.2609C11.5102 23.275 12.5118 24.2766 12.5259 24.2907L13.4851 22.739C13.7391 22.5556 14.0635 22.6826 14.1623 23.0211L13.7391 24.7986C13.7532 24.7986 15.1639 24.8127 15.178 24.7986L14.7689 23.0211C14.8253 22.7108 15.1498 22.5697 15.446 22.739L16.4053 24.2907C16.4194 24.2766 17.4209 23.275 17.4351 23.2609L15.8833 22.3158C15.6999 22.0619 15.8269 21.7233 16.1654 21.6386L17.9288 22.0619C17.9288 22.0477 17.9288 20.623 17.9288 20.6089L16.1654 21.0321C15.841 20.9615 15.6999 20.6371 15.8833 20.3408Z" fill="url(#paint5_radial)"/>
<path d="M15.6439 20.5107L17.6188 19.0436C17.506 18.9025 16.8994 18.31 16.7583 18.1831L15.2771 20.158C15.0655 20.3132 14.7975 20.2004 14.727 19.9182L15.0796 17.4777C14.8962 17.4636 14.0357 17.4636 13.8664 17.4777L14.2191 19.9182C14.1768 20.1721 13.9088 20.285 13.6548 20.1439L12.1877 18.169C12.0467 18.2818 11.4401 18.8884 11.3272 19.0295L13.3022 20.5107C13.4573 20.7223 13.3445 20.9903 13.0623 21.0609L10.636 20.7223C10.6219 20.9057 10.6219 21.7521 10.636 21.9355L13.0765 21.5828C13.3304 21.6251 13.4432 21.8932 13.3022 22.1471L11.3272 23.6142C11.426 23.7412 12.0326 24.3478 12.1877 24.4747L13.6689 22.4998C13.8805 22.3446 14.1486 22.4574 14.2191 22.7255L13.8664 25.166C14.0357 25.1801 14.8962 25.1801 15.0796 25.166L14.727 22.7255C14.7693 22.4574 15.0373 22.3446 15.2771 22.4998L16.7583 24.4747C16.8994 24.376 17.4919 23.7553 17.6188 23.6142L15.6439 22.1471C15.4887 21.9355 15.6016 21.6675 15.8696 21.5828L18.3101 21.9355C18.3242 21.7521 18.3242 20.8916 18.3101 20.7223L15.8696 21.075C15.6016 21.0327 15.4887 20.7646 15.6439 20.5107Z" fill="url(#paint6_radial)"/>
<path d="M15.3619 20.7087L17.8165 18.6491C17.5908 18.367 17.4356 18.2259 17.1535 17.9861L15.0939 20.4407C14.9246 20.5535 14.7271 20.4689 14.6707 20.2573L14.9528 17.0691C14.586 17.0409 14.3603 17.0268 14.0217 17.0691L14.3039 20.2714C14.2757 20.4689 14.0641 20.5535 13.8807 20.4407L11.8211 17.9861C11.5248 18.2259 11.3838 18.367 11.1581 18.6491L13.6126 20.7087C13.7255 20.878 13.6409 21.0755 13.4293 21.1319L10.2411 20.8498C10.1988 21.2165 10.1988 21.4281 10.2411 21.7808L13.4434 21.4987C13.6409 21.5269 13.7255 21.7385 13.6126 21.9219L11.1581 23.9815C11.3697 24.2354 11.5248 24.4047 11.8211 24.6445L13.8525 22.2181C14.0217 22.1053 14.2192 22.1899 14.2757 22.4015L13.9935 25.5896C14.3462 25.632 14.5719 25.6179 14.9246 25.5896L14.6424 22.4015C14.6707 22.204 14.8823 22.1194 15.0657 22.2181L17.1252 24.6727C17.4074 24.4611 17.5484 24.2918 17.7883 24.0097L15.3619 21.936C15.249 21.7667 15.3337 21.5692 15.5312 21.5128L18.7193 21.7949C18.7616 21.4281 18.7475 21.2024 18.7193 20.8639L15.5312 21.146C15.3337 21.1037 15.249 20.8921 15.3619 20.7087Z" fill="url(#paint7_radial)"/>
<path d="M64.3959 25.7171C66.8656 25.7171 68.8677 23.715 68.8677 21.2453C68.8677 18.7755 66.8656 16.7734 64.3959 16.7734C61.9261 16.7734 59.924 18.7755 59.924 21.2453C59.924 23.715 61.9261 25.7171 64.3959 25.7171Z" fill="#303030"/>
<path d="M64.3969 15.4058C61.1664 15.4058 58.5566 18.0296 58.5566 21.246C58.5566 24.4764 61.1664 27.0862 64.3969 27.0862C67.6273 27.0862 70.2371 24.4764 70.2371 21.246C70.2371 18.0296 67.6273 15.4058 64.3969 15.4058ZM64.3969 25.5486C62.0269 25.5486 60.1084 23.63 60.1084 21.2601C60.1084 18.8901 62.0269 16.9716 64.3969 16.9716C66.7668 16.9716 68.6853 18.8901 68.6853 21.2601C68.6853 23.6159 66.7668 25.5486 64.3969 25.5486Z" fill="url(#paint8_radial)"/>
<path d="M64.4721 23.4168C65.633 23.4168 66.574 22.4757 66.574 21.3149C66.574 20.154 65.633 19.213 64.4721 19.213C63.3113 19.213 62.3702 20.154 62.3702 21.3149C62.3702 22.4757 63.3113 23.4168 64.4721 23.4168Z" fill="url(#paint9_radial)"/>
<path d="M64.4727 24.3192C66.1244 24.3192 67.4633 22.9803 67.4633 21.3286C67.4633 19.6769 66.1244 18.338 64.4727 18.338C62.821 18.338 61.482 19.6769 61.482 21.3286C61.482 22.9803 62.821 24.3192 64.4727 24.3192Z" fill="url(#paint10_radial)"/>
<path d="M67.6742 20.8765C67.6178 20.4815 67.4908 20.1006 67.3074 19.7762C67.2087 19.5928 66.9971 19.2824 66.7855 19.0567C66.5033 18.7605 66.1789 18.5348 65.8403 18.3796C65.798 18.3514 65.7416 18.3796 65.7134 18.4219L65.3607 19.0144C65.2901 19.1131 65.3043 19.2683 65.3889 19.353C65.53 19.4517 65.6428 19.5363 65.7557 19.6351C66.066 19.9031 66.2917 20.2558 66.4469 20.6226C66.4469 20.6226 66.4469 20.6226 66.4469 20.6367C66.5033 20.7918 66.5598 20.9611 66.5598 21.1304C66.5739 21.4125 66.5598 21.6806 66.4892 21.9627C66.4469 22.1179 66.4046 22.2731 66.3623 22.4423C66.3482 22.5693 66.4187 22.6963 66.5457 22.7386L67.1805 23.0066C67.2228 23.0207 67.2792 23.0066 67.3074 22.9643C67.4485 22.6963 67.646 22.0756 67.646 22.0615C67.7165 21.6665 67.7306 21.2715 67.6742 20.8765Z" fill="url(#paint11_linear)"/>
<path d="M64.4722 17.0264C62.1022 17.0264 60.1837 18.945 60.1837 21.3149C60.1837 23.6848 62.1022 25.6034 64.4722 25.6034C66.8421 25.6034 68.7606 23.6848 68.7606 21.3149C68.7606 18.9591 66.8421 17.0264 64.4722 17.0264ZM64.4722 24.8275C62.5395 24.8275 60.9737 23.2616 60.9737 21.329C60.9737 19.3964 62.5395 17.8305 64.4722 17.8305C66.4048 17.8305 67.9706 19.3964 67.9706 21.329C67.9706 23.2616 66.4048 24.8275 64.4722 24.8275Z" fill="url(#paint12_radial)"/>
<path d="M65.883 20.3405L67.4348 19.3953C67.4207 19.3812 66.4191 18.3796 66.405 18.3655L65.4457 19.9172C65.1918 20.1006 64.8532 19.9737 64.7686 19.6351L65.1918 17.8718C65.1777 17.8718 63.7388 17.8718 63.7247 17.8718L64.1479 19.6492C64.0915 19.9596 63.767 20.1006 63.4708 19.9172L62.5256 18.3655C62.5115 18.3796 61.5099 19.3812 61.4958 19.3953L63.0476 20.3546C63.231 20.6085 63.0899 20.9329 62.7654 21.0176L61.0021 20.5944C61.0021 20.6085 61.0021 22.0333 61.0021 22.0474L62.7795 21.6242C63.0899 21.6806 63.231 22.0051 63.0476 22.3013L61.4958 23.2606C61.5099 23.2747 62.5115 24.2763 62.5256 24.2904L63.4849 22.7386C63.7388 22.5552 64.0633 22.6822 64.162 23.0207L63.7388 24.7982C63.7529 24.7982 65.1636 24.8123 65.1777 24.7982L64.7686 23.0207C64.825 22.7104 65.1495 22.5693 65.4457 22.7386L66.405 24.2904C66.4191 24.2763 67.4207 23.2747 67.4348 23.2606L65.883 22.3154C65.6996 22.0615 65.8266 21.7229 66.1652 21.6383L67.9285 22.0615C67.9285 22.0474 67.9285 20.6226 67.9285 20.6085L66.1652 21.0317C65.8407 20.9612 65.6996 20.6367 65.883 20.3405Z" fill="url(#paint13_radial)"/>
<path d="M65.6436 20.5104L67.6186 19.0432C67.5057 18.9022 66.8991 18.3097 66.7581 18.1827L65.2768 20.1577C65.0652 20.3129 64.7972 20.2 64.7267 19.9179L65.0793 17.4774C64.896 17.4633 64.0354 17.4633 63.8662 17.4774L64.2188 19.9179C64.1765 20.1718 63.9085 20.2846 63.6546 20.1436L62.1874 18.1686C62.0464 18.2815 61.4398 18.8881 61.3269 19.0291L63.3019 20.5104C63.4571 20.722 63.3442 20.99 63.0621 21.0605L60.6357 20.722C60.6216 20.9053 60.6216 21.7518 60.6357 21.9351L63.0762 21.5825C63.3301 21.6248 63.443 21.8928 63.3019 22.1467L61.3269 23.6139C61.4257 23.7408 62.0323 24.3474 62.1874 24.4744L63.6687 22.4994C63.8803 22.3442 64.1483 22.4571 64.2188 22.7251L63.8662 25.1656C64.0354 25.1797 64.896 25.1797 65.0793 25.1656L64.7267 22.7251C64.769 22.4571 65.037 22.3442 65.2768 22.4994L66.7581 24.4744C66.8991 24.3756 67.4916 23.7549 67.6186 23.6139L65.6436 22.1467C65.4884 21.9351 65.6013 21.6671 65.8693 21.5825L68.3098 21.9351C68.3239 21.7518 68.3239 20.8912 68.3098 20.722L65.8693 21.0746C65.6013 21.0323 65.4884 20.7643 65.6436 20.5104Z" fill="url(#paint14_radial)"/>
<path d="M65.3616 20.7083L67.8162 18.6487C67.5905 18.3666 67.4353 18.2255 67.1531 17.9857L65.0936 20.4403C64.9243 20.5531 64.7268 20.4685 64.6703 20.2569L64.9525 17.0688C64.5857 17.0405 64.36 17.0264 64.0214 17.0688L64.3036 20.271C64.2754 20.4685 64.0638 20.5531 63.8804 20.4403L61.8208 17.9857C61.5245 18.2255 61.3835 18.3666 61.1578 18.6487L63.6123 20.7083C63.7252 20.8776 63.6406 21.0751 63.4289 21.1315L60.2408 20.8494C60.1985 21.2162 60.1985 21.4278 60.2408 21.7804L63.4431 21.4983C63.6406 21.5265 63.7252 21.7381 63.6123 21.9215L61.1578 23.9811C61.3694 24.235 61.5245 24.4043 61.8208 24.6441L63.8522 22.2177C64.0214 22.1049 64.2189 22.1895 64.2754 22.4011L63.9932 25.5893C64.3459 25.6316 64.5716 25.6175 64.9243 25.5893L64.6421 22.4011C64.6703 22.2036 64.882 22.119 65.0653 22.2177L67.1249 24.6723C67.4071 24.4607 67.5481 24.2914 67.788 24.0093L65.3616 21.9356C65.2487 21.7663 65.3334 21.5688 65.5309 21.5124L68.719 21.7945C68.7613 21.4278 68.7472 21.2021 68.719 20.8635L65.5309 21.1456C65.3334 21.1033 65.2487 20.8917 65.3616 20.7083Z" fill="url(#paint15_radial)"/>
<path d="M21.4403 8.04125L21.4262 8.05536C20.9748 8.32339 20.4811 8.49267 19.9591 8.53499L19.3525 8.59142C19.6206 8.43624 19.8745 8.28107 20.1284 8.12589C20.4811 8.14 20.8761 8.11179 21.4403 8.04125Z" fill="#6B7377"/>
<path opacity="0.4" d="M74.3127 7.68818C73.297 7.63176 72.634 7.60354 71.576 7.32141L66.3141 3.20222L69.0367 3.06115C71.1104 4.72575 72.6904 6.10822 74.3127 7.68818Z" fill="#B2B6B9"/>
<path opacity="0.4" d="M33.3888 2.00421C28.8182 3.93685 25.3338 5.72841 21.4262 8.05603C20.9748 8.32406 20.4811 8.49334 19.9591 8.53567L19.3525 8.59209C24.8542 5.23467 29.1286 3.11865 33.1772 1.84904L33.3606 1.83493C33.6004 1.83493 33.6145 1.90546 33.3888 2.00421Z" fill="#B2B6B9"/>
<path d="M46.8608 1.31241C51.4314 1.31241 55.6634 1.73561 60.6008 2.35631C60.8406 2.38453 61.0522 2.44095 61.2356 2.5256C61.6306 2.70898 61.7999 2.92059 61.8845 3.31558C61.9127 3.42843 61.9127 3.55539 61.8986 3.71057C61.8563 4.21841 61.7435 5.48803 61.687 6.06641C61.6729 6.24979 61.6306 6.40497 61.5601 6.53193C61.292 7.05388 60.9112 7.35012 60.2622 7.56173C59.9237 7.67458 59.5428 7.73101 59.1196 7.74512C46.1272 8.08368 35.7728 8.70438 23.4858 9.88935C23.641 9.49436 23.782 9.1699 23.9654 8.85955C24.304 8.26707 24.7695 7.74512 25.3338 7.35012C29.2837 4.5993 32.1756 3.23094 36.4076 2.08828C37.2258 1.86258 38.0863 1.72151 38.961 1.65097C41.9516 1.41116 44.4626 1.31241 46.8608 1.31241ZM46.8608 1.03027C44.4203 1.03027 41.8811 1.14313 38.9327 1.36884C38.0581 1.43937 37.1835 1.58044 36.323 1.82025C31.9499 3.00523 29.0298 4.44412 25.1645 7.12442C24.572 7.53351 24.0642 8.08368 23.7115 8.71849C23.4576 9.1699 23.2742 9.62132 23.0767 10.1997C34.4891 9.08526 44.9705 8.37992 59.1196 8.01315C59.5287 7.99904 59.9378 7.94261 60.3328 7.81565C61.0804 7.57583 61.5036 7.22316 61.7999 6.65889C61.8845 6.48961 61.9409 6.29211 61.9551 6.09462C61.9974 5.53035 62.1102 4.24663 62.1667 3.73878C62.1808 3.58361 62.1808 3.42843 62.1526 3.27326C62.0538 2.76541 61.814 2.49738 61.3485 2.28578C61.1228 2.18703 60.8829 2.1165 60.629 2.08828C55.2261 1.39705 51.2057 1.03027 46.8608 1.03027Z" fill="url(#paint16_linear)" stroke="black" stroke-width="0.367" stroke-miterlimit="10"/>
<path d="M46.2824 1.3119L45.5347 8.23835C44.9563 8.26656 44.3779 8.29478 43.7996 8.32299L45.1679 1.3119C45.5488 1.3119 45.9156 1.3119 46.2824 1.3119Z" fill="url(#paint17_linear)"/>
<path d="M45.1821 1.32677L43.8138 8.33785C43.2213 8.36607 42.6288 8.40839 42.0363 8.4366L44.0536 1.35498C44.4204 1.34087 44.8013 1.32677 45.1821 1.32677Z" fill="url(#paint18_linear)"/>
<path d="M27.1255 6.15119L26.7869 9.57915C25.7007 9.6779 24.6144 9.77664 23.5 9.8895C23.6552 9.49451 23.7962 9.17005 23.9655 8.8597C24.3041 8.26721 24.7696 7.74526 25.3339 7.35027C25.9546 6.91296 26.5471 6.51797 27.1255 6.15119Z" fill="#1A1A1A"/>
<path d="M75.808 13.8816V10.4678C75.808 9.63549 75.4695 8.8314 74.877 8.23891C74.6795 8.05552 74.4961 7.87213 74.3127 7.68875C73.297 7.63232 72.634 7.60411 71.576 7.32197L66.3141 3.20278L69.0368 3.06171L69.4176 2.68083C69.4882 2.61029 69.5164 2.49744 69.4741 2.39869C69.4459 2.32816 69.3753 2.27173 69.3048 2.25762C61.405 0.861049 55.6494 0.183922 45.8028 0.141602C41.1335 0.141602 37.2682 0.564806 33.1631 1.86263L33.3465 1.84853C33.6004 1.83442 33.6146 1.90495 33.3747 2.0037C28.8041 3.93633 25.3197 5.7279 21.4122 8.05552C20.9607 8.32355 20.467 8.49283 19.9451 8.53515L19.3385 8.59158L19.2679 8.60569C18.9153 8.6339 18.5767 8.66212 18.2381 8.70444C6.81161 9.79066 -0.495715 12.6826 0.0262367 18.6215C0.0403435 18.7062 0.110878 18.7626 0.181412 18.7626H0.759791L0.788004 20.4554L0.181412 21.6686C-0.0584042 22.1623 0.266052 22.7407 0.816218 22.783L7.1925 23.2909L7.75677 23.3332H7.86962C7.67213 22.6279 7.53106 21.9084 7.53106 21.1325C7.53106 17.2814 10.6769 14.1638 14.5563 14.1638C18.4356 14.1638 21.5814 17.2814 21.5814 21.1325C21.5814 22.0777 21.5109 22.8254 21.4404 23.7H21.5391H22.0329L56.9049 23.5307H57.4268L57.5397 23.5166C57.4692 22.8112 57.441 22.0918 57.441 21.3159C57.441 17.4648 60.5162 14.3472 64.2969 14.3472C68.0775 14.3472 71.1528 17.4648 71.1528 21.3159C71.1528 21.7815 71.1387 22.2047 71.1105 22.6138L71.7312 22.5432L74.0729 22.2611C74.4961 22.2047 74.8911 22.0354 75.2014 21.7532L76.1889 20.8363C76.6262 20.4554 76.9083 19.9194 76.9507 19.3551C77.0917 16.9005 76.993 15.2218 75.808 13.8816ZM62.1808 3.73884C62.1385 4.24668 62.0257 5.5163 61.9692 6.09468C61.9551 6.29217 61.8987 6.48967 61.8141 6.65895C61.5178 7.22322 61.0946 7.59 60.347 7.81571C59.952 7.94267 59.5429 7.9991 59.1338 8.0132C44.9988 8.36587 34.5033 9.08532 23.0909 10.1998C23.2884 9.62138 23.4718 9.16996 23.7257 8.71854C24.0783 8.08374 24.5862 7.53357 25.1787 7.12447C29.0298 4.44418 31.9641 3.00528 36.3372 1.82031C37.1836 1.5946 38.0582 1.43943 38.9469 1.36889C47.1571 0.734088 52.1932 1.00212 60.6432 2.07423C60.8971 2.10245 61.1369 2.15888 61.3626 2.27173C61.8141 2.48333 62.0539 2.75136 62.1667 3.25921C62.1808 3.41438 62.1949 3.58366 62.1808 3.73884Z" fill="white"/>
<mask id="mask0" mask-type="alpha" maskUnits="userSpaceOnUse" x="0" y="0" width="77" height="24">
<path d="M75.808 13.8816V10.4678C75.808 9.63549 75.4695 8.8314 74.877 8.23891C74.6795 8.05552 74.4961 7.87213 74.3127 7.68875C73.297 7.63232 72.634 7.60411 71.576 7.32197L66.3141 3.20278L69.0368 3.06171L69.4176 2.68083C69.4882 2.61029 69.5164 2.49744 69.4741 2.39869C69.4459 2.32816 69.3753 2.27173 69.3048 2.25762C61.405 0.861049 55.6494 0.183922 45.8028 0.141602C41.1335 0.141602 37.2682 0.564806 33.1631 1.86263L33.3465 1.84853C33.6004 1.83442 33.6146 1.90495 33.3747 2.0037C28.8041 3.93633 25.3197 5.7279 21.4122 8.05552C20.9607 8.32355 20.467 8.49283 19.9451 8.53515L19.3385 8.59158L19.2679 8.60569C18.9153 8.6339 18.5767 8.66212 18.2381 8.70444C6.81161 9.79066 -0.495715 12.6826 0.0262367 18.6215C0.0403435 18.7062 0.110878 18.7626 0.181412 18.7626H0.759791L0.788004 20.4554L0.181412 21.6686C-0.0584042 22.1623 0.266052 22.7407 0.816218 22.783L7.1925 23.2909L7.75677 23.3332H7.86962C7.67213 22.6279 7.53106 21.9084 7.53106 21.1325C7.53106 17.2814 10.6769 14.1638 14.5563 14.1638C18.4356 14.1638 21.5814 17.2814 21.5814 21.1325C21.5814 22.0777 21.5109 22.8254 21.4404 23.7H21.5391H22.0329L56.9049 23.5307H57.4268L57.5397 23.5166C57.4692 22.8112 57.441 22.0918 57.441 21.3159C57.441 17.4648 60.5162 14.3472 64.2969 14.3472C68.0775 14.3472 71.1528 17.4648 71.1528 21.3159C71.1528 21.7815 71.1387 22.2047 71.1105 22.6138L71.7312 22.5432L74.0729 22.2611C74.4961 22.2047 74.8911 22.0354 75.2014 21.7532L76.1889 20.8363C76.6262 20.4554 76.9083 19.9194 76.9507 19.3551C77.0917 16.9005 76.993 15.2218 75.808 13.8816ZM62.1808 3.73884C62.1385 4.24668 62.0257 5.5163 61.9692 6.09468C61.9551 6.29217 61.8987 6.48967 61.8141 6.65895C61.5178 7.22322 61.0946 7.59 60.347 7.81571C59.952 7.94267 59.5429 7.9991 59.1338 8.0132C44.9988 8.36587 34.5033 9.08532 23.0909 10.1998C23.2884 9.62138 23.4718 9.16996 23.7257 8.71854C24.0783 8.08374 24.5862 7.53357 25.1787 7.12447C29.0298 4.44418 31.9641 3.00528 36.3372 1.82031C37.1836 1.5946 38.0582 1.43943 38.9469 1.36889C47.1571 0.734088 52.1932 1.00212 60.6432 2.07423C60.8971 2.10245 61.1369 2.15888 61.3626 2.27173C61.8141 2.48333 62.0539 2.75136 62.1667 3.25921C62.1808 3.41438 62.1949 3.58366 62.1808 3.73884Z" fill="#F79E1B"/>
</mask>
<g mask="url(#mask0)">
<path d="M4.42577 18.5536L1.71576 20.1728L-0.75293 26.5914L79.4443 23.9816V9.94531L22.8241 12.9474C16.3267 13.292 10.0113 15.2163 4.42577 18.5536Z" fill="#9AA0A4" fill-opacity="0.15"/>
<path d="M15.0469 16.6466L-0.682187 25.3222L-3.15088 30.2596L79.0213 28.7079L79.5856 13.8252L15.0469 16.6466Z" fill="#9AA0A4" fill-opacity="0.15"/>
<path d="M41.0476 11.7866C41.0797 12.516 40.4803 12.6575 39.806 12.6902C39.1317 12.7229 38.5537 12.6575 38.5109 11.9172C38.4787 11.1878 39.046 11.0463 39.7203 11.0137C40.4054 10.9701 41.0154 11.0463 41.0476 11.7866Z" fill="url(#paint19_linear)"/>
<path d="M40.7654 11.7272C40.7878 12.2786 40.3281 12.3778 39.8011 12.4109C39.2741 12.433 38.8257 12.3889 38.792 11.8265C38.7696 11.2751 39.2069 11.1758 39.7338 11.1538C40.2608 11.1207 40.7317 11.1648 40.7654 11.7272Z" fill="url(#paint20_linear)"/>
<path d="M42.0361 11.5835C41.9712 11.5687 41.5273 11.4354 41.0401 11.428C40.5096 11.4206 40.3581 11.4651 39.6977 11.4873C39.0373 11.5095 38.8749 11.4799 38.3552 11.5169C37.8789 11.5539 37.4458 11.7651 37.3809 11.7799C38.0196 11.7281 38.8099 11.661 39.6977 11.6388C40.5746 11.6166 41.3974 11.5761 42.0361 11.5835Z" fill="#DCDCDC"/>
<path d="M41.9664 11.9338C42.0632 11.777 42.0309 11.5785 42.0309 11.5785C42.0309 11.5785 42.0309 11.5785 42.0202 11.5785C41.3851 11.5576 40.5779 11.568 39.706 11.6098C38.8342 11.6516 38.027 11.7143 37.3919 11.7875C37.3812 11.7875 37.3812 11.7875 37.3812 11.7875C37.3812 11.7875 37.3704 11.986 37.478 12.1323C38.0915 12.0278 38.8773 11.9442 39.7168 11.9024C40.5671 11.8815 41.3421 11.892 41.9664 11.9338Z" fill="#DCDDDE"/>
<path d="M37.7844 12.3533C38.162 12.4448 38.6444 12.4056 38.6444 12.4056C38.6444 12.4056 38.6758 12.092 39.714 12.0267C40.7523 11.9613 40.8047 12.2749 40.8047 12.2749C40.8047 12.2749 41.2871 12.2619 41.6646 12.1181C41.78 12.0789 41.8534 11.9875 41.8954 11.896C41.2871 11.8437 40.5215 11.8307 39.7036 11.8829C38.8856 11.9352 38.0495 12.0011 37.4517 12.1318C37.5146 12.2102 37.6691 12.3272 37.7844 12.3533Z" fill="#C7C9CB"/>
<path d="M58.5407 10.9409C58.5728 11.6703 57.9734 11.8118 57.2991 11.8445C56.6248 11.8771 56.0468 11.8118 56.004 11.0715C55.9719 10.3421 56.5392 10.2006 57.2135 10.168C57.8985 10.1244 58.5086 10.2006 58.5407 10.9409Z" fill="url(#paint21_linear)"/>
<path d="M58.2585 10.8815C58.2809 11.4329 57.8212 11.5321 57.2943 11.5652C56.7673 11.5873 56.3188 11.5431 56.2852 10.9807C56.2628 10.4294 56.7 10.3301 57.227 10.3081C57.754 10.275 58.2249 10.3191 58.2585 10.8815Z" fill="url(#paint22_linear)"/>
<path d="M59.5293 10.7378C59.4643 10.723 59.0204 10.5897 58.5333 10.5823C58.0028 10.5749 57.8512 10.6194 57.1908 10.6416C56.5304 10.6638 56.368 10.6342 55.8484 10.6712C55.372 10.7082 54.939 10.9194 54.874 10.9342C55.5128 10.8824 56.3031 10.8153 57.1908 10.7931C58.0677 10.7709 58.8905 10.7304 59.5293 10.7378Z" fill="#DCDCDC"/>
<path d="M59.4595 11.0881C59.5564 10.9313 59.5241 10.7328 59.5241 10.7328C59.5241 10.7328 59.5241 10.7328 59.5133 10.7328C58.8783 10.7119 58.071 10.7223 57.1992 10.7641C56.3274 10.8059 55.5201 10.8686 54.8851 10.9418C54.8743 10.9418 54.8743 10.9418 54.8743 10.9418C54.8743 10.9418 54.8636 11.1403 54.9712 11.2866C55.5847 11.1821 56.3704 11.0985 57.21 11.0567C58.0603 11.0358 58.8352 11.0463 59.4595 11.0881Z" fill="#DCDDDE"/>
<path d="M55.2776 11.5076C55.6551 11.5991 56.1375 11.5599 56.1375 11.5599C56.1375 11.5599 56.169 11.2463 57.2072 11.181C58.2454 11.1156 58.2979 11.4292 58.2979 11.4292C58.2979 11.4292 58.7803 11.4162 59.1578 11.2724C59.2732 11.2332 59.3466 11.1418 59.3885 11.0503C58.7803 10.998 58.0147 10.985 57.1967 11.0372C56.3787 11.0895 55.5426 11.1554 54.9449 11.2861C55.0078 11.3645 55.1622 11.4815 55.2776 11.5076Z" fill="#C7C9CB"/>
<path d="M22.16 21.133C22.16 22.0781 22.0895 22.854 22.0189 23.7004H21.5252H21.4264C21.497 22.8258 21.5675 22.0781 21.5675 21.133C21.5675 17.2818 18.4217 14.1642 14.5423 14.1642C10.663 14.1642 7.51713 17.2818 7.51713 21.133C7.51713 21.8947 7.6582 22.6283 7.85569 23.3336H7.74284L7.17857 23.2913C7.00929 22.6001 6.88232 21.9088 6.88232 21.1612C6.88232 16.9574 10.3103 13.5576 14.5423 13.5576C18.7885 13.5576 22.16 16.9291 22.16 21.133Z" fill="url(#paint23_linear)" fill-opacity="0.8"/>
<path d="M71.7595 21.5832C71.7595 21.9218 71.7454 22.2322 71.7313 22.5425L71.1106 22.613C71.1388 22.2039 71.1529 21.7807 71.1529 21.3152C71.1529 17.4641 68.0776 14.3464 64.297 14.3464C60.5163 14.3464 57.4411 17.4641 57.4411 21.3152C57.4411 22.0911 57.4552 22.8105 57.5398 23.5159L57.427 23.53H56.905C56.8486 22.8529 56.8345 22.1616 56.8345 21.4281C56.8345 17.1114 60.0649 13.7681 64.3111 13.7681C68.5431 13.7681 71.7595 17.2666 71.7595 21.5832Z" fill="url(#paint24_linear)" fill-opacity="0.8"/>
<path d="M74.3551 7.71769C73.3958 7.66127 72.6622 7.63305 71.576 7.33681H71.5619L66.2437 3.1753L69.0368 3.04834L69.0932 3.09066L66.3847 3.21762L71.5901 7.29449C72.6623 7.57663 73.2971 7.60484 74.2845 7.66127L74.3551 7.71769Z" fill="black" fill-opacity="0.4"/>
<path d="M8.88525 11.7368V11.6803C14.7537 11.0173 19.1268 10.5518 23.0908 10.1709V10.2273C19.1268 10.6082 14.7537 11.0737 8.88525 11.7368Z" fill="black" fill-opacity="0.4"/>
<path d="M19.3525 8.60556L19.4231 8.56324L19.9591 8.52092C20.4811 8.46449 20.9748 8.30932 21.4121 8.04129C25.4608 5.61492 28.9311 3.85157 33.3747 1.97536C33.5017 1.91893 33.5299 1.89072 33.5299 1.89072C33.5299 1.89072 33.5017 1.87661 33.417 1.87661C33.4029 1.87661 33.1208 1.87661 33.1208 1.87661L33.276 1.82018H33.3465C33.544 1.80608 33.5722 1.8484 33.5722 1.87661C33.5863 1.90483 33.5581 1.94715 33.3888 2.03179C28.9452 3.90799 25.4749 5.65724 21.4403 8.08361C20.9889 8.35164 20.4811 8.52092 19.9591 8.56324L19.3525 8.60556Z" fill="black" fill-opacity="0.4"/>
<path d="M21.5391 22.3599V22.3035L52.8703 21.9508C54.0412 21.9367 55.1133 21.3301 55.7199 20.3285C57.7089 17.0557 59.0491 14.4742 60.9535 10.5525C61.3485 9.74842 61.4613 8.81737 61.2638 7.94274L61.151 7.40668L61.2074 7.39258L61.3203 7.92864C61.5178 8.81737 61.4049 9.76252 61.0099 10.5807C59.0914 14.5024 57.7654 17.084 55.7763 20.3567C55.1556 21.3724 54.0694 21.9931 52.8844 22.0072L21.5391 22.3599Z" fill="black" fill-opacity="0.4"/>
<path d="M23.6834 22.3169C22.0188 16.6318 21.779 11.8637 23.0768 10.1709L23.1191 10.1991C21.8213 11.8637 22.0611 16.6177 23.7257 22.2886L23.6834 22.3169Z" fill="black" fill-opacity="0.4"/>
<path d="M18.6756 10.6654L18.6191 10.6372L19.6066 8.59174L19.663 8.57764L18.6756 10.6654Z" fill="black" fill-opacity="0.4"/>
<path d="M43.0516 22.0918C42.6001 16.5478 42.7412 13.6418 43.7287 8.60568L45.2099 1.04443L45.2663 1.05854L43.7851 8.61979C42.7976 13.6559 42.6566 16.5478 43.1221 22.0918H43.0516Z" fill="black" fill-opacity="0.4"/>
<path opacity="0.5" d="M10.1543 15.7011L7.19189 13.7967L7.22011 13.7544L10.1966 15.6729L10.1543 15.7011Z" fill="black" fill-opacity="0.4"/>
<path opacity="0.5" d="M68.2322 15.6161L68.1758 15.5738L69.7981 11.7227H69.8545L68.2322 15.6161Z" fill="black" fill-opacity="0.4"/>
<path d="M1.36624 15.4331V15.4049C1.35213 15.1087 1.35213 14.9253 1.40856 14.6996C1.5073 14.2905 1.74712 13.8955 2.1139 13.5992C3.31298 12.5835 5.48542 12.0334 8.88517 11.6807C9.05445 11.6666 9.1673 11.6948 9.20962 11.7795C9.25194 11.8641 9.20962 11.977 9.09677 12.0898C8.22215 13.0491 7.43216 13.7121 6.36005 14.3751C5.93684 14.629 5.48542 14.8265 5.00579 14.9535C4.01832 15.2074 2.59353 15.3203 1.39445 15.4331H1.36624ZM8.88517 11.7371C5.49953 12.0757 3.34119 12.6259 2.14211 13.6416C1.78944 13.9378 1.54962 14.3187 1.46498 14.7137C1.40856 14.9253 1.40856 15.1087 1.42266 15.3767C2.60763 15.2638 4.01832 15.151 4.99169 14.8971C5.47132 14.7842 5.92274 14.5867 6.33183 14.3328C7.38984 13.6698 8.17983 13.0068 9.05445 12.0616C9.1532 11.9628 9.18141 11.8641 9.1532 11.8077C9.12498 11.7512 9.02623 11.723 8.88517 11.7371Z" fill="black" fill-opacity="0.4"/>
<path d="M8.88477 11.7091C5.6261 12.0336 3.36901 12.5697 2.12761 13.6136C1.78904 13.8957 1.53512 14.2766 1.43637 14.6998C1.37995 14.9255 1.37995 15.1089 1.39405 15.4051C2.63545 15.2782 4.03203 15.1653 5.0054 14.9255C5.48503 14.8126 5.93645 14.6151 6.35965 14.3471C7.51641 13.6277 8.29228 12.9223 9.08227 12.0618C9.27976 11.8502 9.19512 11.6809 8.88477 11.7091Z" fill="url(#paint25_linear)"/>
<path d="M6.43091 14.3058C6.4027 14.3199 6.37448 14.334 6.34627 14.3622C6.19109 14.461 6.02181 14.5597 5.85253 14.6302H4.23025C4.21614 14.5174 4.20203 14.4045 4.18793 14.2776C4.17382 14.0942 4.15971 13.9108 4.15971 13.6992C4.15971 13.5722 4.15971 13.4453 4.17382 13.3183C4.18793 13.1067 4.20203 12.9233 4.23025 12.7681H5.86664H6.4027C6.4027 12.8387 6.4027 12.9092 6.38859 12.9938C6.37448 13.149 6.37448 13.3042 6.37448 13.4594C6.37448 13.6992 6.38859 13.939 6.4027 14.1647C6.4168 14.207 6.4168 14.2494 6.43091 14.3058Z" fill="url(#paint26_linear)"/>
<path d="M9.06865 12.0757C8.85705 12.3156 8.63134 12.5413 8.40563 12.7529C7.84136 13.303 7.22066 13.7968 6.41657 14.3046C6.41657 14.2482 6.40247 14.2059 6.40247 14.1494C6.38836 13.9237 6.37425 13.698 6.37425 13.4441C6.37425 13.2889 6.37425 13.1196 6.38836 12.9786C6.38836 12.908 6.38836 12.8234 6.40247 12.7529C6.40247 12.6541 6.41657 12.5695 6.41657 12.4848C6.43068 12.3297 6.44479 12.1886 6.44479 12.0334C7.13602 11.9065 7.89779 11.8077 8.7583 11.709H9.05455C9.22383 11.7654 9.23794 11.9065 9.06865 12.0757Z" fill="url(#paint27_linear)"/>
<path d="M9.06851 12.0763C8.27852 12.9368 7.50265 13.6281 6.34589 14.3616C5.93679 14.6156 5.47127 14.813 4.99164 14.94C4.01827 15.1798 2.62169 15.2927 1.38029 15.4196C1.38029 15.2504 1.36619 15.1093 1.38029 14.9823C2.32545 14.8836 3.48221 14.7707 4.25808 14.5732C4.73771 14.4604 5.18913 14.2629 5.61234 13.9949C6.74088 13.2895 7.51676 12.6124 8.27852 11.7801C8.47602 11.7519 8.67352 11.7378 8.87101 11.7096C9.19547 11.6813 9.28011 11.8506 9.06851 12.0763Z" fill="#B2B2B2"/>
<g style="mix-blend-mode:screen">
<path d="M8.88477 11.7091C5.6261 12.0336 3.36901 12.5697 2.12761 13.6136C1.78904 13.8957 1.53512 14.2766 1.43637 14.6998C1.37995 14.9255 1.37995 15.1089 1.39405 15.4051C2.63545 15.2782 4.03203 15.1653 5.0054 14.9255C5.48503 14.8126 5.93645 14.6151 6.35965 14.3471C7.51641 13.6277 8.29228 12.9223 9.08227 12.0618C9.27976 11.8502 9.19512 11.6809 8.88477 11.7091Z" fill="url(#paint28_linear)"/>
</g>
<path d="M75.8083 10.4675V11.4409L69.7847 11.7371L70.6593 9.64933C70.9555 8.94398 71.6185 8.47846 72.3803 8.45025C73.5935 8.39382 74.5387 8.47846 75.4838 9.08505C75.6954 9.49415 75.8083 9.97378 75.8083 10.4675Z" fill="#A80500"/>
<path d="M75.8082 10.4676V11.4409L74.9054 11.4833C74.2988 10.4958 74.0449 9.67758 73.9743 8.49261C74.4963 8.57725 74.99 8.76064 75.4837 9.07099C75.6953 9.49419 75.8082 9.97382 75.8082 10.4676Z" fill="#EE0000"/>
<path d="M71.5621 10.6086C71.5621 10.7073 71.6326 10.792 71.7455 10.792L74.7502 10.665C74.8913 10.665 75.0042 10.5381 75.0042 10.397V10.0725C75.0042 9.79041 74.7644 9.5647 74.4822 9.5647L72.733 9.48006C72.0982 9.50827 71.6044 9.9879 71.5621 10.6086Z" fill="#F0F1F2"/>
<path opacity="0.8" d="M62.1808 3.73842C62.1385 4.24627 62.0256 5.51588 61.9692 6.09426C61.9551 6.29176 61.8987 6.48925 61.814 6.65853C61.5178 7.2228 61.0946 7.58958 60.3469 7.81529C59.9519 7.94225 59.5428 7.99868 59.1337 8.01279C44.9987 8.36546 34.5032 9.0849 23.0908 10.1993C23.2883 9.62096 23.4717 9.16954 23.7256 8.71813C24.0783 8.08332 24.5861 7.53315 25.1786 7.12406C29.0298 4.44376 31.964 3.00487 36.3371 1.8199C37.1835 1.59419 38.0581 1.43901 38.9469 1.36848C47.157 0.733671 52.1932 1.0017 60.6432 2.07382C60.8971 2.10203 61.1369 2.15846 61.3626 2.27131C61.814 2.48292 62.0538 2.75095 62.1667 3.25879C62.1808 3.41397 62.1949 3.58325 62.1808 3.73842Z" fill="#B2B6B9"/>
<path d="M58.1606 8.06909L57.6245 8.01266L58.4004 1.80566L58.9364 1.86209L58.1606 8.06909Z" fill="#6B7377"/>
<path d="M27.1259 6.15137L26.7874 9.57932C25.7011 9.67807 24.6149 9.77682 23.5005 9.88967C23.6557 9.49468 23.7967 9.17022 23.966 8.85988C24.3046 8.26739 24.7701 7.74544 25.3344 7.35045C25.9551 6.91314 26.5476 6.51814 27.1259 6.15137Z" fill="#6B7377"/>
<path d="M28.0281 9.38064C28.0281 9.49349 27.9434 9.59224 27.8306 9.59224C27.4779 9.60635 27.097 9.59224 26.6879 9.56403C26.4763 9.54992 26.2647 9.53581 26.0672 9.5076C25.6581 9.46528 25.3337 9.12672 25.3055 8.71762C25.3055 8.70351 25.3055 8.6753 25.3055 8.66119C25.2914 8.30852 25.3337 8.02638 25.3901 7.80068C25.4042 7.74425 25.4183 7.70193 25.4324 7.6455C25.4748 7.54675 25.5312 7.41979 25.6299 7.29283C25.8415 6.98248 26.1801 6.78498 26.5469 6.74266C26.6879 6.72856 26.8431 6.72856 27.0124 6.75677C27.1817 6.78499 27.3227 6.84141 27.4497 6.91195C27.7177 7.05301 27.887 7.30694 27.9152 7.60318C27.9434 7.87121 27.9717 8.15335 27.9858 8.43548C27.9999 8.77405 28.014 9.0844 28.0281 9.38064Z" fill="url(#paint29_linear)"/>
<path d="M28.0281 9.38064C28.0281 9.49349 27.9434 9.59224 27.8306 9.59224C27.4779 9.60635 27.097 9.59224 26.6879 9.56403C26.4763 9.54992 26.2647 9.53581 26.0672 9.5076C25.6581 9.46528 25.3337 9.12672 25.3055 8.71762C25.3055 8.70351 25.3055 8.6753 25.3055 8.66119C25.2914 8.30852 25.3337 8.02638 25.3901 7.80068C25.4042 7.74425 25.4183 7.70193 25.4324 7.6455C25.4748 7.54675 25.5312 7.41979 25.6299 7.29283C25.8415 6.98248 26.1801 6.78498 26.5469 6.74266C26.6879 6.72856 26.8431 6.72856 27.0124 6.75677C27.1817 6.78499 27.3227 6.84141 27.4497 6.91195C27.7177 7.05301 27.887 7.30694 27.9152 7.60318C27.9434 7.87121 27.9717 8.15335 27.9858 8.43548C27.9999 8.77405 28.014 9.0844 28.0281 9.38064Z" fill="url(#paint30_linear)"/>
<path d="M46.8612 1.31241C51.4318 1.31241 55.6639 1.73561 60.6013 2.35631C60.8411 2.38453 61.0527 2.44095 61.2361 2.5256C61.6311 2.70898 61.8003 2.92059 61.885 3.31558C61.9132 3.42843 61.9132 3.55539 61.8991 3.71057C61.8568 4.21841 61.7439 5.48803 61.6875 6.06641C61.6734 6.24979 61.6311 6.40497 61.5605 6.53193C61.2925 7.05388 60.9116 7.35012 60.2627 7.56173C59.9241 7.67458 59.5433 7.73101 59.1201 7.74512C46.1277 8.08368 35.7733 8.70438 23.4862 9.88935C23.6414 9.49436 23.7825 9.1699 23.9659 8.85955C24.3044 8.26707 24.77 7.74512 25.3342 7.35012C29.2841 4.5993 32.176 3.23094 36.4081 2.08828C37.2263 1.86258 38.0868 1.72151 38.9614 1.65097C41.9521 1.41116 44.4631 1.31241 46.8612 1.31241ZM46.8612 1.03027C44.4208 1.03027 41.8815 1.14313 38.9332 1.36884C38.0586 1.43937 37.184 1.58044 36.3234 1.82025C31.9503 3.00523 29.0302 4.44412 25.165 7.12442C24.5725 7.53351 24.0646 8.08368 23.712 8.71849C23.458 9.1699 23.2746 9.62132 23.0771 10.1997C34.4896 9.08526 44.9709 8.37992 59.1201 8.01315C59.5291 7.99904 59.9382 7.94261 60.3332 7.81565C61.0809 7.57583 61.5041 7.22316 61.8003 6.65889C61.885 6.48961 61.9414 6.29211 61.9555 6.09462C61.9978 5.53035 62.1107 4.24663 62.1671 3.73878C62.1812 3.58361 62.1812 3.42843 62.153 3.27326C62.0543 2.76541 61.8145 2.49738 61.3489 2.28578C61.1232 2.18703 60.8834 2.1165 60.6295 2.08828C55.2266 1.39705 51.2061 1.03027 46.8612 1.03027Z" fill="#6B7377"/>
<path d="M46.2826 1.3125L45.5349 8.23894C44.9566 8.26716 44.3782 8.29537 43.7998 8.32359L45.1682 1.3125C45.5491 1.3125 45.9158 1.3125 46.2826 1.3125Z" fill="#6B7377"/>
<path d="M45.1824 1.32715L43.8141 8.33823C43.2216 8.36645 42.6291 8.40877 42.0366 8.43698L44.0539 1.35536C44.4207 1.34126 44.8016 1.32715 45.1824 1.32715Z" fill="#6B7377"/>
</g>
<defs>
<linearGradient id="paint0_linear" x1="38.5" y1="24.5745" x2="38.5" y2="28.5" gradientUnits="userSpaceOnUse">
<stop stop-color="#0C0C0C"/>
<stop offset="1" stop-color="white" stop-opacity="0"/>
</linearGradient>
<radialGradient id="paint1_radial" cx="0" cy="0" r="1" gradientUnits="userSpaceOnUse" gradientTransform="translate(14.5293 21.3024) rotate(-1.36393) scale(5.92654 6.01843)">
<stop offset="0.708877" stop-color="#3D4346"/>
<stop offset="0.78453" stop-color="#6B7377"/>
<stop offset="0.902378" stop-color="#46494B"/>
<stop offset="1" stop-color="#46494B"/>
</radialGradient>
<radialGradient id="paint2_radial" cx="0" cy="0" r="1" gradientUnits="userSpaceOnUse" gradientTransform="translate(14.4695 21.3225) scale(2.99032 2.98882)">
<stop offset="0.5732" stop-color="white"/>
<stop offset="0.7573" stop-color="#818181"/>
<stop offset="1" stop-color="#666666"/>
</radialGradient>
<linearGradient id="paint3_linear" x1="16.5055" y1="23.0018" x2="16.5055" y2="18.3602" gradientUnits="userSpaceOnUse">
<stop stop-color="#46494B"/>
<stop offset="0.5021" stop-color="#691418"/>
<stop offset="1" stop-color="#46494B"/>
</linearGradient>
<radialGradient id="paint4_radial" cx="0" cy="0" r="1" gradientUnits="userSpaceOnUse" gradientTransform="translate(14.4689 21.3215) scale(4.28992)">
<stop offset="0.8536" stop-color="#46494B"/>
<stop offset="1" stop-color="#F1F1F1"/>
</radialGradient>
<radialGradient id="paint5_radial" cx="0" cy="0" r="1" gradientUnits="userSpaceOnUse" gradientTransform="translate(14.4682 21.3236) rotate(-1.60889) scale(3.47752)">
<stop stop-color="#535353"/>
<stop offset="0.5272" stop-color="#515151"/>
<stop offset="1" stop-color="#535353"/>
</radialGradient>
<radialGradient id="paint6_radial" cx="0" cy="0" r="1" gradientUnits="userSpaceOnUse" gradientTransform="translate(14.4739 21.3212) rotate(-22.0511) scale(3.78232)">
<stop stop-color="#A0A0A0"/>
<stop offset="0.5272" stop-color="#858585"/>
<stop offset="1" stop-color="#A0A0A0"/>
</radialGradient>
<radialGradient id="paint7_radial" cx="0" cy="0" r="1" gradientUnits="userSpaceOnUse" gradientTransform="translate(14.4695 21.3218) rotate(-45) scale(4.29048)">
<stop stop-color="#F7F7F7"/>
<stop offset="0.5272" stop-color="#BFBFBF"/>
<stop offset="1" stop-color="#F7F7F7"/>
</radialGradient>
<radialGradient id="paint8_radial" cx="0" cy="0" r="1" gradientUnits="userSpaceOnUse" gradientTransform="translate(64.3687 21.3024) rotate(-1.36393) scale(5.92654 6.01843)">
<stop offset="0.708877" stop-color="#3D4346"/>
<stop offset="0.78453" stop-color="#6B7377"/>
<stop offset="0.902378" stop-color="#46494B"/>
<stop offset="1" stop-color="#46494B"/>
</radialGradient>
<radialGradient id="paint9_radial" cx="0" cy="0" r="1" gradientUnits="userSpaceOnUse" gradientTransform="translate(64.4686 21.3211) scale(2.09802)">
<stop offset="0.8368" stop-color="#1A1A1A"/>
<stop offset="1" stop-color="#4D4D4D"/>
</radialGradient>
<radialGradient id="paint10_radial" cx="0" cy="0" r="1" gradientUnits="userSpaceOnUse" gradientTransform="translate(64.4692 21.3221) scale(2.99032 2.98882)">
<stop offset="0.5732" stop-color="white"/>
<stop offset="0.7573" stop-color="#818181"/>
<stop offset="1" stop-color="#666666"/>
</radialGradient>
<linearGradient id="paint11_linear" x1="66.5052" y1="23.0014" x2="66.5052" y2="18.3598" gradientUnits="userSpaceOnUse">
<stop stop-color="#46494B"/>
<stop offset="0.5021" stop-color="#691418"/>
<stop offset="1" stop-color="#46494B"/>
</linearGradient>
<radialGradient id="paint12_radial" cx="0" cy="0" r="1" gradientUnits="userSpaceOnUse" gradientTransform="translate(64.4686 21.3211) scale(4.28992)">
<stop offset="0.8536" stop-color="#46494B"/>
<stop offset="1" stop-color="#F1F1F1"/>
</radialGradient>
<radialGradient id="paint13_radial" cx="0" cy="0" r="1" gradientUnits="userSpaceOnUse" gradientTransform="translate(64.4679 21.3232) rotate(-1.60889) scale(3.47752)">
<stop stop-color="#535353"/>
<stop offset="0.5272" stop-color="#515151"/>
<stop offset="1" stop-color="#535353"/>
</radialGradient>
<radialGradient id="paint14_radial" cx="0" cy="0" r="1" gradientUnits="userSpaceOnUse" gradientTransform="translate(64.4736 21.3209) rotate(-22.0511) scale(3.78232)">
<stop stop-color="#A0A0A0"/>
<stop offset="0.5272" stop-color="#858585"/>
<stop offset="1" stop-color="#A0A0A0"/>
</radialGradient>
<radialGradient id="paint15_radial" cx="0" cy="0" r="1" gradientUnits="userSpaceOnUse" gradientTransform="translate(64.4692 21.3215) rotate(-45) scale(4.29048)">
<stop stop-color="#F7F7F7"/>
<stop offset="0.5272" stop-color="#BFBFBF"/>
<stop offset="1" stop-color="#F7F7F7"/>
</radialGradient>
<linearGradient id="paint16_linear" x1="34.1329" y1="-1.93591" x2="52.3455" y2="16.2767" gradientUnits="userSpaceOnUse">
<stop stop-color="white"/>
<stop offset="0.1088" stop-color="#B2B2B2"/>
<stop offset="0.2176" stop-color="white"/>
<stop offset="0.3598" stop-color="#B2B2B2"/>
<stop offset="0.4435" stop-color="white"/>
<stop offset="0.523" stop-color="#B2B2B2"/>
<stop offset="0.5983" stop-color="white"/>
<stop offset="0.6946" stop-color="#B2B2B2"/>
<stop offset="0.7615" stop-color="white"/>
<stop offset="0.8536" stop-color="#B2B2B2"/>
<stop offset="0.9247" stop-color="white"/>
<stop offset="1" stop-color="#B2B2B2"/>
</linearGradient>
<linearGradient id="paint17_linear" x1="45.0455" y1="8.33154" x2="45.0455" y2="1.30856" gradientUnits="userSpaceOnUse">
<stop stop-color="#1A1A1A"/>
<stop offset="0.2845" stop-color="#4D4D4D"/>
<stop offset="0.7866" stop-color="#1A1A1A"/>
</linearGradient>
<linearGradient id="paint18_linear" x1="43.6004" y1="8.43216" x2="43.6004" y2="1.32385" gradientUnits="userSpaceOnUse">
<stop stop-color="#1A1A1A"/>
<stop offset="0.2845" stop-color="#4D4D4D"/>
<stop offset="0.7866" stop-color="#1A1A1A"/>
</linearGradient>
<linearGradient id="paint19_linear" x1="39.8234" y1="12.6481" x2="39.7484" y2="11.1271" gradientUnits="userSpaceOnUse">
<stop stop-color="white"/>
<stop offset="1" stop-color="#969696"/>
</linearGradient>
<linearGradient id="paint20_linear" x1="39.7792" y1="12.699" x2="39.7792" y2="10.656" gradientUnits="userSpaceOnUse">
<stop stop-color="#DCDCDC"/>
<stop offset="1" stop-color="#969696"/>
</linearGradient>
<linearGradient id="paint21_linear" x1="57.3165" y1="11.8024" x2="57.2416" y2="10.2814" gradientUnits="userSpaceOnUse">
<stop stop-color="white"/>
<stop offset="1" stop-color="#969696"/>
</linearGradient>
<linearGradient id="paint22_linear" x1="57.2724" y1="11.8533" x2="57.2724" y2="9.81024" gradientUnits="userSpaceOnUse">
<stop stop-color="#DCDCDC"/>
<stop offset="1" stop-color="#969696"/>
</linearGradient>
<linearGradient id="paint23_linear" x1="14.5282" y1="23.7112" x2="14.5282" y2="13.5544" gradientUnits="userSpaceOnUse">
<stop offset="0.1255" stop-color="#6B7377"/>
<stop offset="1" stop-color="#CBCBCB"/>
</linearGradient>
<linearGradient id="paint24_linear" x1="64.3038" y1="23.5403" x2="64.3038" y2="13.7649" gradientUnits="userSpaceOnUse">
<stop offset="0.1255" stop-color="#6B7377"/>
<stop offset="1" stop-color="#CBCBCB"/>
</linearGradient>
<linearGradient id="paint25_linear" x1="1.66754" y1="13.5566" x2="9.19014" y2="13.5566" gradientUnits="userSpaceOnUse">
<stop stop-color="#FAFAFA"/>
<stop offset="1" stop-color="#666666"/>
</linearGradient>
<linearGradient id="paint26_linear" x1="5.29466" y1="14.6279" x2="5.29466" y2="12.7542" gradientUnits="userSpaceOnUse">
<stop stop-color="#4D4D4D"/>
<stop offset="0.1841" stop-color="white"/>
<stop offset="0.4812" stop-color="#808080"/>
<stop offset="0.8201" stop-color="white"/>
<stop offset="1" stop-color="#4D4D4D"/>
</linearGradient>
<linearGradient id="paint27_linear" x1="7.79121" y1="14.3054" x2="7.79121" y2="11.7199" gradientUnits="userSpaceOnUse">
<stop stop-color="#4D4D4D"/>
<stop offset="0.1841" stop-color="white"/>
<stop offset="0.4812" stop-color="#808080"/>
<stop offset="0.8201" stop-color="white"/>
<stop offset="1" stop-color="#4D4D4D"/>
</linearGradient>
<linearGradient id="paint28_linear" x1="1.66754" y1="13.5566" x2="9.19014" y2="13.5566" gradientUnits="userSpaceOnUse">
<stop stop-color="#4D4D4D"/>
<stop offset="0.2845"/>
<stop offset="0.4477" stop-color="#4D4D4D"/>
<stop offset="0.6276"/>
<stop offset="0.7866" stop-color="#262626"/>
<stop offset="1"/>
</linearGradient>
<linearGradient id="paint29_linear" x1="28.0251" y1="8.16782" x2="25.2895" y2="8.16782" gradientUnits="userSpaceOnUse">
<stop stop-color="#B3B3B3"/>
<stop offset="0.2427" stop-color="white"/>
<stop offset="0.4017" stop-color="white"/>
<stop offset="1" stop-color="#B3B3B3"/>
</linearGradient>
<linearGradient id="paint30_linear" x1="26.6573" y1="9.59272" x2="26.6573" y2="6.7429" gradientUnits="userSpaceOnUse">
<stop stop-color="#B3B3B3"/>
<stop offset="0.2845" stop-color="white"/>
<stop offset="1" stop-color="#B3B3B3"/>
</linearGradient>
</defs>
</svg>
