<svg width="25" height="31" viewBox="0 0 25 31" fill="none" xmlns="http://www.w3.org/2000/svg">
<path d="M12.5 0C9.186 0.00380909 6.00885 1.28813 3.66549 3.57123C1.32214 5.85433 0.00392292 8.94978 1.32987e-05 12.1786C-0.00395589 14.8171 0.880672 17.3841 2.51819 19.4857C2.51819 19.4857 2.8591 19.923 2.91478 19.9861L12.5 31L22.0898 19.9806C22.1398 19.9219 22.4818 19.4857 22.4818 19.4857L22.4829 19.4824C24.1197 17.3817 25.0039 14.8159 25 12.1786C24.9961 8.94978 23.6779 5.85433 21.3345 3.57123C18.9912 1.28813 15.814 0.00380909 12.5 0ZM12.5 16.6071C11.601 16.6071 10.7222 16.3474 9.97468 15.8608C9.22719 15.3742 8.64459 14.6825 8.30055 13.8733C7.95652 13.0641 7.8665 12.1737 8.04189 11.3146C8.21728 10.4555 8.65019 9.66644 9.28588 9.0471C9.92157 8.42775 10.7315 8.00597 11.6132 7.83509C12.495 7.66422 13.4089 7.75192 14.2395 8.0871C15.07 8.42229 15.7799 8.98991 16.2794 9.71819C16.7789 10.4465 17.0455 11.3027 17.0455 12.1786C17.0439 13.3527 16.5646 14.4782 15.7125 15.3084C14.8603 16.1386 13.7051 16.6057 12.5 16.6071Z" fill="black"/>
</svg>
